<?xml version="1.0" encoding="utf-8"?>
<!-- Generator: Adobe Illustrator 18.0.0, SVG Export Plug-In . SVG Version: 6.00 Build 0)  -->
<!DOCTYPE svg PUBLIC "-//W3C//DTD SVG 1.1//EN" "http://www.w3.org/Graphics/SVG/1.1/DTD/svg11.dtd">
<svg version="1.1"
	 id="Layer_1" xmlns:inkscape="http://www.inkscape.org/namespaces/inkscape" xmlns:dc="http://purl.org/dc/elements/1.1/" xmlns:svg="http://www.w3.org/2000/svg" xmlns:cc="http://creativecommons.org/ns#" xmlns:rdf="http://www.w3.org/1999/02/22-rdf-syntax-ns#" xmlns:sodipodi="http://sodipodi.sourceforge.net/DTD/sodipodi-0.dtd" inkscape:version="0.48.4 r9939" sodipodi:docname="7-segment_display-4_digit(blue).svg"
	 xmlns="http://www.w3.org/2000/svg" xmlns:xlink="http://www.w3.org/1999/xlink" x="0px" y="0px" viewBox="0 0 612 792"
	 enable-background="new 0 0 612 792" xml:space="preserve">
<sodipodi:namedview  guidetolerance="10" id="namedview291" inkscape:cy="36.733853" inkscape:zoom="3.2816505" bordercolor="#666666" borderopacity="1" showgrid="false" pagecolor="#ffffff" gridtolerance="10" fit-margin-top="0" inkscape:cx="127.01777" objecttolerance="10" fit-margin-left="0" inkscape:window-width="1377" inkscape:pageopacity="0" inkscape:pageshadow="2" inkscape:window-height="915" inkscape:window-x="0" inkscape:window-y="0" inkscape:current-layer="Layer_1" inkscape:window-maximized="0" fit-margin-right="0" fit-margin-bottom="0">
	</sodipodi:namedview>
<desc  id="desc3">
	<referenceFile  id="referenceFile5">OpenSegment_breadboard_blue.svg</referenceFile>
</desc>
<desc  id="desc7">Fritzing breadboard generated by brd2svg</desc>
<g id="_x3C_Group_x3E__1_" transform="matrix(0.55909238,0,0,0.55909238,-4.5359558e-5,-11.69174)">
	
		<circle id="connector0pin_2_" sodipodi:rx="3.506" sodipodi:cx="57.014999" sodipodi:ry="3.506" sodipodi:cy="79.336998" fill="none" stroke="#9A916C" stroke-width="0.4898" cx="375.6" cy="590.5" r="18.9">
	</circle>
	
		<circle id="connector1pin_2_" sodipodi:rx="3.506" sodipodi:cx="69.827003" sodipodi:ry="3.506" sodipodi:cy="79.336998" fill="none" stroke="#9A916C" stroke-width="0.4898" cx="444.4" cy="590.5" r="18.9">
	</circle>
	
		<circle id="connector2pin_2_" sodipodi:rx="3.506" sodipodi:cx="82.639" sodipodi:ry="3.506" sodipodi:cy="79.336998" fill="none" stroke="#9A916C" stroke-width="0.4898" cx="513.2" cy="590.5" r="18.9">
	</circle>
	
		<circle id="connector3pin_2_" sodipodi:rx="3.506" sodipodi:cx="95.452003" sodipodi:ry="3.506" sodipodi:cy="79.336998" fill="none" stroke="#9A916C" stroke-width="0.4898" cx="581.9" cy="590.5" r="18.9">
	</circle>
	
		<circle id="connector4pin_2_" sodipodi:rx="3.506" sodipodi:cx="108.264" sodipodi:ry="3.506" sodipodi:cy="79.336998" fill="none" stroke="#9A916C" stroke-width="0.4898" cx="650.7" cy="590.5" r="18.9">
	</circle>
	
		<circle id="connector5pin_2_" sodipodi:rx="3.506" sodipodi:cx="121.076" sodipodi:ry="3.506" sodipodi:cy="79.336998" fill="none" stroke="#9A916C" stroke-width="0.4898" cx="719.4" cy="590.5" r="18.9">
	</circle>
	
		<circle id="connector0pin_1_" sodipodi:rx="3.506" sodipodi:cx="57.014999" sodipodi:ry="3.506" sodipodi:cy="79.336998" fill="none" stroke="#9A916C" stroke-width="0.4898" cx="375.6" cy="866.9" r="18.9">
	</circle>
	
		<circle id="connector1pin_1_" sodipodi:rx="3.506" sodipodi:cx="69.827003" sodipodi:ry="3.506" sodipodi:cy="79.336998" fill="none" stroke="#9A916C" stroke-width="0.4898" cx="444.4" cy="866.9" r="18.9">
	</circle>
	
		<circle id="connector2pin_1_" sodipodi:rx="3.506" sodipodi:cx="82.639" sodipodi:ry="3.506" sodipodi:cy="79.336998" fill="none" stroke="#9A916C" stroke-width="0.4898" cx="513.2" cy="866.9" r="18.9">
	</circle>
	
		<circle id="connector3pin_1_" sodipodi:rx="3.506" sodipodi:cx="95.452003" sodipodi:ry="3.506" sodipodi:cy="79.336998" fill="none" stroke="#9A916C" stroke-width="0.4898" cx="581.9" cy="866.9" r="18.9">
	</circle>
	
		<circle id="connector4pin_1_" sodipodi:rx="3.506" sodipodi:cx="108.264" sodipodi:ry="3.506" sodipodi:cy="79.336998" fill="none" stroke="#9A916C" stroke-width="0.4898" cx="650.7" cy="866.9" r="18.9">
	</circle>
	
		<circle id="connector5pin_1_" sodipodi:rx="3.506" sodipodi:cx="121.076" sodipodi:ry="3.506" sodipodi:cy="79.336998" fill="none" stroke="#9A916C" stroke-width="0.4898" cx="719.4" cy="866.9" r="18.9">
	</circle>
	<polygon id="polygon194" fill="#323232" points="0,893.1 0,553.1 1083.9,553.1 1094.2,562.6 1094.2,905.5 9.5,905.5 	"/>
	<polygon id="polygon196" fill="#2569CC" points="100.1,594.4 108.3,586.6 227.4,586.6 235.1,594.4 219.2,618.4 116,618.4 	"/>
	<polygon id="polygon198" fill="#646464" points="219.2,626.2 243.3,602.5 251,618.4 235.1,705.7 219.2,721.2 203.3,705.7 	"/>
	<polygon id="polygon200" fill="#646464" points="195.5,753 219.2,729.3 227.4,745.2 211.4,832.5 195.5,848.4 179.6,832.5 	"/>
	<polygon id="polygon202" fill="#2569CC" points="187.4,856.1 179.6,864.3 60.6,864.3 52.9,856.1 68.8,832.5 171.9,832.5 	"/>
	<polygon id="polygon204" fill="#2569CC" points="68.8,824.3 44.7,848.4 37,832.5 52.9,745.2 68.8,729.3 84.7,745.2 	"/>
	<polygon id="polygon206" fill="#2569CC" points="92.4,697.5 68.8,721.2 60.6,705.7 76.5,618.4 92.4,602.5 108.3,618.4 	"/>
	<polyline id="polyline208" fill="#646464" points="76.5,721.2 92.4,705.7 195.5,705.7 211.4,721.2 195.5,737.1 92.4,737.1 	"/>
	
		<circle id="circle210" sodipodi:rx="3.1110001" sodipodi:cx="40.277" sodipodi:ry="3.1110001" sodipodi:cy="75.825996" fill="#646464" cx="231.6" cy="848.4" r="16.8">
	</circle>
	<polygon id="polygon212" fill="#2569CC" points="375.6,594.4 383.4,586.6 502.4,586.6 510.1,594.4 494.7,618.4 391.5,618.4 	"/>
	<polygon id="polygon214" fill="#2569CC" points="494.7,626.2 518.3,602.5 526,618.4 510.1,705.7 494.7,721.2 478.8,705.7 	"/>
	<polygon id="polygon216" fill="#2569CC" points="470.6,753 494.7,729.3 502.4,745.2 486.5,832.5 470.6,848.4 454.7,832.5 	"/>
	<polygon id="polygon218" fill="#2569CC" points="462.9,856.1 454.7,864.3 336.1,864.3 327.9,856.1 343.8,832.5 447,832.5 	"/>
	<polygon id="polygon220" fill="#2569CC" points="343.8,824.3 320.2,848.4 312,832.5 327.9,745.2 343.8,729.3 359.7,745.2 	"/>
	<polygon id="polygon222" fill="#2569CC" points="367.5,697.5 343.8,721.2 336.1,705.7 351.6,618.4 367.5,602.5 383.4,618.4 	"/>
	<polyline id="polyline224" fill="#646464" points="351.6,721.2 367.5,705.7 470.6,705.7 486.5,721.2 470.6,737.1 367.5,737.1 	"/>
	
		<circle id="circle226" sodipodi:rx="3.1110001" sodipodi:cx="91.504997" sodipodi:ry="3.1110001" sodipodi:cy="75.825996" fill="#646464" cx="507.1" cy="848.4" r="16.8">
	</circle>
	<polygon id="polygon234" fill="#2569CC" points="650.7,594.4 658.8,586.6 777.9,586.6 785.6,594.4 769.7,618.4 666.6,618.4 	"/>
	<polygon id="polygon236" fill="#2569CC" points="769.7,626.2 793.8,602.5 801.5,618.4 785.6,705.7 769.7,721.2 753.8,705.7 	"/>
	<polygon id="polygon238" fill="#2569CC" points="746.1,753 769.7,729.3 777.9,745.2 762,832.5 746.1,848.4 730.2,832.5 	"/>
	<polygon id="polygon240" fill="#2569CC" points="737.9,856.1 730.2,864.3 611.1,864.3 603.4,856.1 619.3,832.5 722,832.5 	"/>
	<polygon id="polygon242" fill="#2569CC" points="619.3,824.3 595.2,848.4 587.5,832.5 603.4,745.2 619.3,729.3 634.8,745.2 	"/>
	<polygon id="polygon244" fill="#2569CC" points="642.9,697.5 619.3,721.2 611.1,705.7 627,618.4 642.9,602.5 658.8,618.4 	"/>
	<polyline id="polyline246" fill="#646464" points="627,721.2 642.9,705.7 746.1,705.7 762,721.2 746.1,737.1 642.9,737.1 	"/>
	
		<circle id="circle248" sodipodi:rx="3.1110001" sodipodi:cx="142.754" sodipodi:ry="3.1110001" sodipodi:cy="75.825996" fill="#646464" cx="782.2" cy="848.4" r="16.8">
	</circle>
	<polygon id="polygon250" fill="#646464" points="927,594.4 934.8,586.6 1053.8,586.6 1061.5,594.4 1045.6,618.4 942.9,618.4 	"/>
	<polygon id="polygon252" fill="#646464" points="1045.6,626.2 1069.7,602.5 1077.4,618.4 1061.5,705.7 1045.6,721.2 1030.2,705.7 	
		"/>
	<polygon id="polygon254" fill="#646464" points="1022,753 1045.6,729.3 1053.8,745.2 1037.9,832.5 1022,848.4 1006.1,832.5 	"/>
	<polygon id="polygon256" fill="#2569CC" points="1014.3,856.1 1006.1,864.3 887.1,864.3 879.3,856.1 895.2,832.5 998.4,832.5 	"/>
	<polygon id="polygon258" fill="#2569CC" points="895.2,824.3 871.6,848.4 863.4,832.5 879.3,745.2 895.2,729.3 911.1,745.2 	"/>
	<polygon id="polygon260" fill="#2569CC" points="918.9,697.5 895.2,721.2 887.1,705.7 903,618.4 918.9,602.5 934.8,618.4 	"/>
	<polyline id="polyline262" fill="#646464" points="903,721.2 918.9,705.7 1022,705.7 1037.9,721.2 1022,737.1 918.9,737.1 	"/>
	
		<circle id="circle264" sodipodi:rx="3.1110001" sodipodi:cx="194.13699" sodipodi:ry="3.1110001" sodipodi:cy="75.825996" fill="#646464" cx="1058.1" cy="848.4" r="16.8">
	</circle>
	<polygon id="polygon266" fill="#C7C7C7" points="1094.6,905.5 1085.2,893.1 0.4,893.1 9.9,905.5 	"/>
	<polygon id="polygon268" fill="#AAAAAA" points="1083.9,553.1 1083.9,893.1 1094.6,905.5 1094.6,562.6 	"/>
	<rect x="325.8" y="453.4" fill="#C7C7C7" width="13.2" height="71.6"/>
	<rect x="414.9" y="453.4" fill="#C7C7C7" width="13.2" height="71.6"/>
	<rect x="504.1" y="453.4" fill="#C7C7C7" width="13.2" height="71.6"/>
	<rect x="593.2" y="453.4" fill="#C7C7C7" width="13.2" height="71.6"/>
	<rect x="682.4" y="453.4" fill="#C7C7C7" width="13.2" height="71.6"/>
	<rect x="771.6" y="453.4" fill="#C7C7C7" width="13.2" height="71.6"/>
	<rect x="319" y="378.7" fill="none" width="26.7" height="21.3"/>
	<text transform="matrix(1.7886 0 0 1.7886 308.5155 402.0531)" fill="#2569CC" font-family="'SegoeUI-Semilight'" font-size="24">D1</text>
	<rect x="412.9" y="378.7" fill="none" width="17.3" height="21.3"/>
	<text transform="matrix(1.7886 0 0 1.7886 406.0331 402.054)" fill="#2569CC" font-family="'SegoeUI-Semilight'" font-size="24">A</text>
	<rect x="507.3" y="378.7" fill="none" width="17.3" height="21.3"/>
	<text transform="matrix(1.7886 0 0 1.7886 500.447 402.054)" fill="#2569CC" font-family="'SegoeUI-Semilight'" font-size="24">F</text>
	<rect x="583.2" y="378.7" fill="none" width="33.2" height="21.3"/>
	<text transform="matrix(1.7886 0 0 1.7886 570.1255 402.054)" fill="#2569CC" font-family="'SegoeUI-Semilight'" font-size="24">D2</text>
	<rect x="672.4" y="378.7" fill="none" width="33.2" height="21.3"/>
	<text transform="matrix(1.7886 0 0 1.7886 659.2886 402.054)" fill="#2569CC" font-family="'SegoeUI-Semilight'" font-size="24">D3</text>
	<rect x="769.5" y="378.7" fill="none" width="17.3" height="21.3"/>
	<text transform="matrix(1.7886 0 0 1.7886 762.6856 402.054)" fill="#2569CC" font-family="'SegoeUI-Semilight'" font-size="24">B</text>
	<rect x="321.8" y="933.3" fill="#C7C7C7" width="13.2" height="71.6"/>
	<rect x="410.9" y="933.3" fill="#C7C7C7" width="13.2" height="71.6"/>
	<rect x="500.1" y="933.3" fill="#C7C7C7" width="13.2" height="71.6"/>
	<rect x="589.3" y="933.3" fill="#C7C7C7" width="13.2" height="71.6"/>
	<rect x="678.4" y="933.3" fill="#C7C7C7" width="13.2" height="71.6"/>
	<rect x="767.6" y="933.3" fill="#C7C7C7" width="13.2" height="71.6"/>
	<rect x="408.9" y="1058.2" fill="none" width="17.3" height="21.3"/>
	<text transform="matrix(1.7886 0 0 1.7886 402.0437 1081.5227)" fill="#2569CC" font-family="'SegoeUI-Semilight'" font-size="24">D</text>
	<rect x="321.5" y="1058.2" fill="none" width="17.3" height="21.3"/>
	<text transform="matrix(1.7886 0 0 1.7886 314.6692 1081.5227)" fill="#2569CC" font-family="'SegoeUI-Semilight'" font-size="24">E</text>
	<rect x="490.1" y="1058.2" fill="none" width="33.2" height="21.3"/>
	<text transform="matrix(1.7886 0 0 1.7886 476.9729 1081.5227)" fill="#2569CC" font-family="'SegoeUI-Semilight'" font-size="24">DP</text>
	<rect x="587.9" y="1058.2" fill="none" width="17.3" height="21.3"/>
	<text transform="matrix(1.7886 0 0 1.7886 581.0186 1081.5227)" fill="#2569CC" font-family="'SegoeUI-Semilight'" font-size="24">C</text>
	<rect x="676.4" y="1058.2" fill="none" width="17.3" height="21.3"/>
	<text transform="matrix(1.7886 0 0 1.7886 669.533 1081.5227)" fill="#2569CC" font-family="'SegoeUI-Semilight'" font-size="24">G</text>
	<rect x="757.6" y="1058.2" fill="none" width="33.2" height="21.3"/>
	<text transform="matrix(1.7886 0 0 1.7886 744.4622 1081.5227)" fill="#2569CC" font-family="'SegoeUI-Semilight'" font-size="24">D4</text>
</g>
</svg>
